<svg width="40" height="40" viewBox="0 0 40 40" fill="none" xmlns="http://www.w3.org/2000/svg">
<mask id="mask0_58_87" style="mask-type:alpha" maskUnits="userSpaceOnUse" x="0" y="0" width="40" height="40">
<rect width="40" height="40" fill="#D9D9D9"/>
</mask>
<g mask="url(#mask0_58_87)">
<path d="M4.59146 38.5891V10.5081C4.59146 9.64532 4.90295 8.90246 5.52592 8.27951C6.14889 7.65654 6.89175 7.34505 7.7545 7.34505H26.3113C27.1723 7.34505 27.9182 7.65654 28.5491 8.27951C29.18 8.90246 29.4955 9.64532 29.4955 10.5081V38.5891L17.0329 33.2816L4.59146 38.5891ZM7.7545 33.7923L17.0329 29.7898L26.3113 33.7923V10.5081H7.7545V33.7923ZM32.2455 33.9109V4.56731H10.2141V1.41089H32.2455C33.1083 1.41089 33.8511 1.72172 34.4741 2.34339C35.0971 2.96506 35.4085 3.70636 35.4085 4.56731V33.9109H32.2455Z" fill="#F5B502"/>
</g>
</svg>
