<svg width="40" height="40" viewBox="0 0 40 40" fill="none" xmlns="http://www.w3.org/2000/svg">
<mask id="mask0_58_90" style="mask-type:alpha" maskUnits="userSpaceOnUse" x="0" y="0" width="40" height="40">
<rect width="40" height="40" fill="#D9D9D9"/>
</mask>
<g mask="url(#mask0_58_90)">
<path d="M3.33333 40V34.161H36.6667V40H3.33333ZM9.55404 26.8092H11.4212L26.34 11.9043L24.469 10.0232L9.55404 24.9421V26.8092ZM6.65337 29.7165V23.7567L26.5347 3.8726C26.8188 3.59302 27.135 3.38564 27.4833 3.25048C27.8317 3.11531 28.1888 3.04773 28.5546 3.04773C28.9204 3.04773 29.2853 3.11614 29.6493 3.25298C30.0134 3.38978 30.3316 3.59984 30.6042 3.88315L32.4906 5.7536C32.7817 6.0191 32.9982 6.33664 33.1402 6.70623C33.2822 7.07578 33.3533 7.44313 33.3533 7.80827C33.3533 8.16422 33.2829 8.51866 33.1423 8.8716C33.0017 9.22455 32.7878 9.54481 32.5006 9.8324L12.6065 29.7165H6.65337Z" fill="#F5B502"/>
</g>
</svg>
