<svg width="40" height="40" viewBox="0 0 40 40" fill="none" xmlns="http://www.w3.org/2000/svg">
<mask id="mask0_58_93" style="mask-type:alpha" maskUnits="userSpaceOnUse" x="0" y="0" width="40" height="40">
<rect width="40" height="40" fill="#D9D9D9"/>
</mask>
<g mask="url(#mask0_58_93)">
<path d="M7.87742 13.6111H32.1226V8.98852H7.87742V13.6111ZM7.87742 36.9457C7.01648 36.9457 6.27518 36.6349 5.65351 36.0132C5.03184 35.3915 4.72101 34.6502 4.72101 33.7893V8.98852C4.72101 8.12577 5.03184 7.38291 5.65351 6.75994C6.27518 6.13696 7.01648 5.82548 7.87742 5.82548H10.1389V3.04773H13.2449V5.82548H26.7551V3.04773H29.8611V5.82548H32.1226C32.9854 5.82548 33.7282 6.13696 34.3512 6.75994C34.9741 7.38291 35.2856 8.12577 35.2856 8.98852V20.6359C34.7897 20.38 34.2801 20.1721 33.7567 20.0122C33.2333 19.8523 32.6886 19.7339 32.1226 19.6569V16.3889H7.87742V33.7893H20.2585C20.4433 34.3831 20.6792 34.9411 20.9662 35.4635C21.2533 35.9858 21.592 36.4799 21.9825 36.9457H7.87742ZM30.4583 38.3334C28.2329 38.3334 26.3386 37.5506 24.7754 35.9852C23.2122 34.4198 22.4306 32.5266 22.4306 30.3056C22.4306 28.0846 23.2122 26.1914 24.7754 24.6259C26.3386 23.0605 28.2329 22.2778 30.4583 22.2778C32.6794 22.2778 34.5726 23.0605 36.138 24.6259C37.7034 26.1914 38.4861 28.0846 38.4861 30.3056C38.4861 32.5266 37.7034 34.4198 36.138 35.9852C34.5726 37.5506 32.6794 38.3334 30.4583 38.3334ZM33.0068 34.5103L34.2464 33.254L31.1081 30.1144V25.4058H29.3397V30.7704L33.0068 34.5103Z" fill="#F5B502"/>
</g>
</svg>
