<svg width="40" height="40" viewBox="0 0 40 40" fill="none" xmlns="http://www.w3.org/2000/svg">
<mask id="mask0_58_78" style="mask-type:alpha" maskUnits="userSpaceOnUse" x="0" y="0" width="40" height="40">
<rect width="40" height="40" fill="#D9D9D9"/>
</mask>
<g mask="url(#mask0_58_78)">
<path d="M18.3333 33.6123C17.788 33.6123 17.3274 33.4244 16.9515 33.0485C16.5756 32.6725 16.3877 32.2119 16.3877 31.6667V21.7663L6.59298 9.24937C6.11954 8.65418 6.04893 8.02732 6.38115 7.36879C6.71337 6.71029 7.25298 6.38104 7.99998 6.38104H32C32.747 6.38104 33.2866 6.71029 33.6188 7.36879C33.951 8.02732 33.8827 8.65418 33.4137 9.24937L23.6189 21.7663V31.7563C23.6189 32.2861 23.441 32.7279 23.085 33.0817C22.729 33.4354 22.2861 33.6123 21.7563 33.6123H18.3333ZM20 21.2228L29.2041 9.54408H10.8025L20 21.2228Z" fill="#F5B502"/>
</g>
</svg>
