<svg width="40" height="40" viewBox="0 0 40 40" fill="none" xmlns="http://www.w3.org/2000/svg">
<mask id="mask0_58_81" style="mask-type:alpha" maskUnits="userSpaceOnUse" x="0" y="0" width="40" height="40">
<rect width="40" height="40" fill="#D9D9D9"/>
</mask>
<g mask="url(#mask0_58_81)">
<path d="M5.40188 15.3611V6.04076H8.30917V10.1679C9.76873 8.45894 11.5041 7.12279 13.5154 6.15943C15.5267 5.19607 17.6571 4.71439 19.9067 4.71439C24.1273 4.71439 27.7257 6.16346 30.7018 9.06159C33.678 11.9597 35.196 15.5021 35.2558 19.6887V19.9665H32.0993V19.6054C32.0351 16.3143 30.8177 13.5369 28.447 11.2731C26.0763 9.00932 23.2296 7.87743 19.9067 7.87743C18.075 7.87743 16.3526 8.2888 14.7394 9.11155C13.1263 9.93433 11.7325 11.044 10.558 12.4405H14.7699V15.3611H5.40188ZM4.74879 20.5278H7.923C8.03189 23.6129 9.13752 26.2457 11.2399 28.4261C13.3422 30.6064 15.911 31.7869 18.9463 31.9674H19.2796L21.1697 35.1957C20.966 35.2327 20.7577 35.2558 20.5447 35.2651C20.3317 35.2744 20.1141 35.279 19.8919 35.279C15.7818 35.2701 12.2635 33.8398 9.33696 30.9879C6.41041 28.1361 4.88102 24.6493 4.74879 20.5278ZM22.6966 24.6528L18.5824 20.5942V11.5833H21.4831V19.3889L24.2352 22.0855L22.6966 24.6528ZM30.1703 39.7222L29.7159 37.0124C29.2869 36.8868 28.8829 36.722 28.5038 36.5181C28.1247 36.3142 27.7645 36.0533 27.4233 35.7355L25.0468 36.3288L23.6972 34.0417L25.6748 32.2406C25.5941 31.9202 25.5554 31.5866 25.5588 31.2399C25.5621 30.8932 25.6008 30.5563 25.6748 30.2292L23.6972 28.4281L25.0468 26.1311L27.4233 26.7343C27.7645 26.4165 28.1247 26.1551 28.5038 25.9501C28.8829 25.745 29.2869 25.5775 29.7159 25.4475L30.1703 22.7443H32.9906L33.445 25.4475C33.8696 25.5775 34.2748 25.7491 34.6608 25.9623C35.0468 26.1754 35.409 26.442 35.7476 26.7621L38.1141 26.1311L39.4737 28.4559L37.4861 30.2569C37.5668 30.5774 37.6055 30.908 37.6022 31.2488C37.5989 31.5896 37.5602 31.9202 37.4861 32.2406L39.4737 34.0417L38.1141 36.3288L35.7476 35.7355C35.402 36.0533 35.0379 36.3142 34.6555 36.5181C34.2731 36.722 33.8696 36.8868 33.445 37.0124L32.9906 39.7222H30.1703ZM31.5855 34.5051C32.5355 34.5051 33.3175 34.1982 33.9315 33.5842C34.5454 32.9703 34.8523 32.1883 34.8523 31.2382C34.8523 30.2837 34.5454 29.4989 33.9315 28.8839C33.3175 28.2689 32.5355 27.9613 31.5855 27.9613C30.6309 27.9613 29.8462 28.2689 29.2311 28.8839C28.6161 29.4989 28.3086 30.2837 28.3086 31.2382C28.3086 32.1883 28.6161 32.9703 29.2311 33.5842C29.8462 34.1982 30.6309 34.5051 31.5855 34.5051Z" fill="#F5B502"/>
</g>
</svg>
