<svg
  width="101"
  height="45"
  viewBox="0 0 101 45"
  fill="none"
  xmlns="http://www.w3.org/2000/svg">
  <path
    d="M1.24195 28.5163L8.78109 28.044C8.94435 29.2684 9.27671 30.2014 9.77815 30.8427C10.5945 31.8806 11.7606 32.3995 13.2766 32.3995C14.4078 32.3995 15.2765 32.1372 15.8829 31.6124C16.501 31.076 16.81 30.4579 16.81 29.7582C16.81 29.0935 16.5185 28.4988 15.9354 27.974C15.3523 27.4493 13.9996 26.9536 11.8772 26.4872C8.40209 25.7059 5.92403 24.668 4.44302 23.3736C2.95035 22.0791 2.20402 20.429 2.20402 18.4233C2.20402 17.1055 2.58302 15.8636 3.34101 14.6974C4.11067 13.5196 5.25933 12.5984 6.78698 11.9337C8.32629 11.2573 10.4312 10.9191 13.1017 10.9191C16.3785 10.9191 18.8741 11.5313 20.5883 12.7558C22.3142 13.9686 23.3404 15.9044 23.667 18.5632L16.1978 19.0005C15.9995 17.846 15.5797 17.0064 14.9384 16.4816C14.3086 15.9569 13.434 15.6945 12.3145 15.6945C11.3933 15.6945 10.6994 15.8927 10.2329 16.2892C9.76649 16.674 9.53326 17.1463 9.53326 17.7061C9.53326 18.1142 9.72567 18.4816 10.1105 18.8081C10.4837 19.1463 11.3699 19.4611 12.7693 19.7527C16.2328 20.499 18.7108 21.257 20.2035 22.0267C21.7078 22.7847 22.7982 23.7292 23.4746 24.8604C24.1626 25.9916 24.5066 27.2568 24.5066 28.6562C24.5066 30.3005 24.0518 31.8165 23.1422 33.2042C22.2326 34.5919 20.9615 35.6473 19.3289 36.3703C17.6963 37.0816 15.638 37.4373 13.1541 37.4373C8.79275 37.4373 5.77243 36.5977 4.09318 34.9184C2.41393 33.2392 1.46352 31.1051 1.24195 28.5163ZM28.9685 11.3564H37.7671L42.9448 20.0151L48.1225 11.3564H56.8686L46.898 26.2598V37H38.9566V26.2598L28.9685 11.3564ZM62.5375 11.3564H69.9367L79.5924 25.5426V11.3564H87.0616V37H79.5924L69.9892 22.9188V37H62.5375V11.3564Z"
    fill="black" />
  <path
    d="M1.24195 28.5163L1.18595 27.6224L0.271474 27.6797L0.349608 28.5926L1.24195 28.5163ZM8.78109 28.044L9.66884 27.9256L9.55848 27.0979L8.7251 27.1501L8.78109 28.044ZM9.77815 30.8427L9.07258 31.3944L9.0742 31.3964L9.77815 30.8427ZM15.8829 31.6124L16.469 32.2896L16.47 32.2888L15.8829 31.6124ZM11.8772 26.4872L11.6808 27.361L11.685 27.3619L11.8772 26.4872ZM4.44302 23.3736L5.03241 22.6992L5.02978 22.6969L4.44302 23.3736ZM3.34101 14.6974L2.59129 14.2075L2.5901 14.2093L3.34101 14.6974ZM6.78698 11.9337L7.14431 12.7549L7.14726 12.7536L6.78698 11.9337ZM20.5883 12.7558L20.0678 13.4846L20.0734 13.4886L20.5883 12.7558ZM23.667 18.5632L23.7193 19.4573L24.6722 19.4015L24.5559 18.454L23.667 18.5632ZM16.1978 19.0005L15.3151 19.1521L15.4506 19.9414L16.2501 19.8946L16.1978 19.0005ZM14.9384 16.4816L14.365 17.1697L14.3712 17.1748L14.9384 16.4816ZM10.2329 16.2892L10.803 16.9801L10.813 16.9716L10.2329 16.2892ZM10.1105 18.8081L10.7119 18.1445L10.7011 18.1346L10.6899 18.1252L10.1105 18.8081ZM12.7693 19.7527L12.958 18.8771L12.952 18.8759L12.7693 19.7527ZM20.2035 22.0267L19.793 22.8227L19.8005 22.8265L20.2035 22.0267ZM23.4746 24.8604L22.7059 25.32L22.7094 25.3258L23.4746 24.8604ZM19.3289 36.3703L19.6866 37.1913L19.6916 37.1892L19.3289 36.3703ZM1.29794 29.4101L8.83709 28.9378L8.7251 27.1501L1.18595 27.6224L1.29794 29.4101ZM7.89335 28.1624C8.06762 29.4694 8.43477 30.5785 9.07259 31.3944L10.4837 30.2911C10.1186 29.8242 9.82109 29.0675 9.66884 27.9256L7.89335 28.1624ZM9.0742 31.3964C10.0868 32.6839 11.5319 33.2951 13.2766 33.2951V31.5039C11.9893 31.5039 11.1021 31.0773 10.4821 30.2891L9.0742 31.3964ZM13.2766 33.2951C14.5354 33.2951 15.644 33.0036 16.469 32.2896L15.2969 30.9352C14.9091 31.2708 14.2801 31.5039 13.2766 31.5039V33.2951ZM16.47 32.2888C17.2473 31.6141 17.7056 30.7624 17.7056 29.7582H15.9144C15.9144 30.1534 15.7547 30.5378 15.2959 30.936L16.47 32.2888ZM17.7056 29.7582C17.7056 28.7935 17.2691 27.9694 16.5345 27.3083L15.3363 28.6397C15.7678 29.0281 15.9144 29.3935 15.9144 29.7582H17.7056ZM16.5345 27.3083C16.1142 26.93 15.5008 26.6276 14.7917 26.3678C14.0637 26.1011 13.1524 25.8505 12.0695 25.6125L11.685 27.3619C12.7244 27.5904 13.5507 27.8208 14.1755 28.0497C14.819 28.2855 15.1735 28.4932 15.3363 28.6397L16.5345 27.3083ZM12.0737 25.6134C8.64368 24.8422 6.34311 23.8448 5.0324 22.6992L3.85364 24.0479C5.50495 25.4912 8.16051 26.5695 11.6808 27.361L12.0737 25.6134ZM5.02978 22.6969C3.73667 21.5756 3.09962 20.1739 3.09962 18.4233H1.30842C1.30842 20.6842 2.16403 22.5827 3.85626 24.0502L5.02978 22.6969ZM3.09962 18.4233C3.09962 17.2886 3.42285 16.2149 4.09192 15.1855L2.5901 14.2093C1.74318 15.5123 1.30842 16.9224 1.30842 18.4233H3.09962ZM4.09074 15.1873C4.74827 14.1811 5.74695 13.3629 7.14431 12.7549L6.42965 11.1124C4.7717 11.8338 3.47307 12.8581 2.59129 14.2075L4.09074 15.1873ZM7.14726 12.7536C8.5258 12.1479 10.4904 11.8147 13.1017 11.8147V10.0235C10.3719 10.0235 8.12679 10.3667 6.4267 11.1137L7.14726 12.7536ZM13.1017 11.8147C16.2885 11.8147 18.5686 12.4138 20.0678 13.4846L21.1089 12.027C19.1796 10.6489 16.4686 10.0235 13.1017 10.0235V11.8147ZM20.0734 13.4886C21.539 14.5185 22.4735 16.1925 22.778 18.6724L24.5559 18.454C24.2074 15.6163 23.0894 13.4187 21.1033 12.023L20.0734 13.4886ZM23.6146 17.6691L16.1454 18.1064L16.2501 19.8946L23.7193 19.4573L23.6146 17.6691ZM17.0805 18.8489C16.8607 17.5689 16.3715 16.497 15.5055 15.7885L14.3712 17.1748C14.788 17.5158 15.1384 18.1231 15.3151 19.1521L17.0805 18.8489ZM15.5117 15.7936C14.6707 15.0928 13.5671 14.7989 12.3145 14.7989V16.5901C13.301 16.5901 13.9465 16.8209 14.365 17.1697L15.5117 15.7936ZM12.3145 14.7989C11.2842 14.7989 10.3457 15.0179 9.65291 15.6068L10.813 16.9716C11.0531 16.7675 11.5023 16.5901 12.3145 16.5901V14.7989ZM9.663 15.5984C9.00921 16.1378 8.63766 16.8554 8.63766 17.7061H10.4289C10.4289 17.4372 10.5238 17.2103 10.8029 16.9801L9.663 15.5984ZM8.63766 17.7061C8.63766 18.4382 8.99735 19.0381 9.53107 19.491L10.6899 18.1252C10.454 17.925 10.4289 17.7903 10.4289 17.7061H8.63766ZM9.50909 19.4717C9.82959 19.7622 10.2805 19.9731 10.7553 20.1418C11.2509 20.3179 11.8654 20.4792 12.5867 20.6295L12.952 18.8759C12.2739 18.7346 11.7456 18.5927 11.3549 18.454C10.9434 18.3078 10.7646 18.1922 10.7119 18.1445L9.50909 19.4717ZM12.5807 20.6282C16.0326 21.372 18.4121 22.1106 19.7931 22.8227L20.614 21.2306C19.0096 20.4034 16.4329 19.626 12.958 18.8772L12.5807 20.6282ZM19.8005 22.8265C21.1949 23.5291 22.1379 24.3701 22.7059 25.32L24.2432 24.4008C23.4585 23.0883 22.2208 22.0403 20.6065 21.2269L19.8005 22.8265ZM22.7094 25.3258C23.3072 26.3086 23.611 27.4112 23.611 28.6562H25.4022C25.4022 27.1024 25.018 25.6745 24.2397 24.395L22.7094 25.3258ZM23.611 28.6562C23.611 30.1244 23.2081 31.47 22.3932 32.7132L23.8912 33.6952C24.8955 32.163 25.4022 30.4766 25.4022 28.6562H23.611ZM22.3932 32.7132C21.5854 33.9457 20.4537 34.8927 18.9662 35.5514L19.6916 37.1892C21.4693 36.4019 22.8799 35.2382 23.8912 33.6952L22.3932 32.7132ZM18.9712 35.5492C17.4866 36.1961 15.5603 36.5417 13.1541 36.5417V38.3329C15.7158 38.3329 17.9059 37.9672 19.6866 37.1913L18.9712 35.5492ZM13.1541 36.5417C8.85053 36.5417 6.14322 35.7019 4.72646 34.2851L3.45989 35.5517C5.40164 37.4935 8.73497 38.3329 13.1541 38.3329V36.5417ZM4.72646 34.2851C3.21092 32.7696 2.33967 30.8396 2.13429 28.4399L0.349608 28.5926C0.587363 31.3706 1.61693 33.7087 3.45989 35.5517L4.72646 34.2851ZM28.9685 11.3564V10.4608H27.2902L28.2245 11.855L28.9685 11.3564ZM37.7671 11.3564L38.5358 10.8968L38.2751 10.4608H37.7671V11.3564ZM42.9448 20.0151L42.1761 20.4747L42.9448 21.7601L43.7134 20.4747L42.9448 20.0151ZM48.1225 11.3564V10.4608H47.6145L47.3538 10.8968L48.1225 11.3564ZM56.8686 11.3564L57.613 11.8544L58.5453 10.4608H56.8686V11.3564ZM46.898 26.2598L46.1537 25.7618L46.0024 25.9878V26.2598H46.898ZM46.898 37V37.8956H47.7936V37H46.898ZM38.9566 37H38.061V37.8956H38.9566V37ZM38.9566 26.2598H39.8522V25.9874L39.7005 25.7612L38.9566 26.2598ZM28.9685 12.252H37.7671V10.4608H28.9685V12.252ZM36.9984 11.8161L42.1761 20.4747L43.7134 19.5554L38.5358 10.8968L36.9984 11.8161ZM43.7134 20.4747L48.8911 11.8161L47.3538 10.8968L42.1761 19.5554L43.7134 20.4747ZM48.1225 12.252H56.8686V10.4608H48.1225V12.252ZM56.1242 10.8584L46.1537 25.7618L47.6424 26.7578L57.613 11.8544L56.1242 10.8584ZM46.0024 26.2598V37H47.7936V26.2598H46.0024ZM46.898 36.1044H38.9566V37.8956H46.898V36.1044ZM39.8522 37V26.2598H38.061V37H39.8522ZM39.7005 25.7612L29.7125 10.8578L28.2245 11.855L38.2126 26.7584L39.7005 25.7612ZM62.5375 11.3564V10.4608H61.6419V11.3564H62.5375ZM69.9367 11.3564L70.6771 10.8525L70.4105 10.4608H69.9367V11.3564ZM79.5924 25.5426L78.852 26.0465L80.488 28.4501V25.5426H79.5924ZM79.5924 11.3564V10.4608H78.6968V11.3564H79.5924ZM87.0616 11.3564H87.9572V10.4608H87.0616V11.3564ZM87.0616 37V37.8956H87.9572V37H87.0616ZM79.5924 37L78.8525 37.5046L79.1191 37.8956H79.5924V37ZM69.9892 22.9188L70.7291 22.4142L69.0936 20.016V22.9188H69.9892ZM69.9892 37V37.8956H70.8848V37H69.9892ZM62.5375 37H61.6419V37.8956H62.5375V37ZM62.5375 12.252H69.9367V10.4608H62.5375V12.252ZM69.1963 11.8603L78.852 26.0465L80.3328 25.0387L70.6771 10.8525L69.1963 11.8603ZM80.488 25.5426V11.3564H78.6968V25.5426H80.488ZM79.5924 12.252H87.0616V10.4608H79.5924V12.252ZM86.166 11.3564V37H87.9572V11.3564H86.166ZM87.0616 36.1044H79.5924V37.8956H87.0616V36.1044ZM80.3323 36.4954L70.7291 22.4142L69.2492 23.4234L78.8525 37.5046L80.3323 36.4954ZM69.0936 22.9188V37H70.8848V22.9188H69.0936ZM69.9892 36.1044H62.5375V37.8956H69.9892V36.1044ZM63.4331 37V11.3564H61.6419V37H63.4331Z"
    fill="black" />
  <path
    fill-rule="evenodd"
    clip-rule="evenodd"
    d="M90.8674 7.16433L101 7.16345L87.5657 20.5977L101 34.032H90.8674L77.4331 20.5977L90.8674 7.16433Z"
    fill="#F5B502" />
</svg>
