<svg width="40" height="40" viewBox="0 0 40 40" fill="none" xmlns="http://www.w3.org/2000/svg">
<mask id="mask0_58_84" style="mask-type:alpha" maskUnits="userSpaceOnUse" x="0" y="0" width="40" height="40">
<rect width="40" height="40" fill="#D9D9D9"/>
</mask>
<g mask="url(#mask0_58_84)">
<path d="M17.6156 26.7234L29.3496 14.9795L27.1549 12.7847L17.6156 22.324L12.7708 17.4792L10.6039 19.6461L17.6156 26.7234ZM7.87742 35.279C7.0094 35.279 6.26633 34.9699 5.64822 34.3518C5.03008 33.7337 4.72101 32.9906 4.72101 32.1226V7.87742C4.72101 7.00758 5.03008 6.26294 5.64822 5.6435C6.26633 5.02408 7.0094 4.71438 7.87742 4.71438H15.6295C15.8846 3.72846 16.4155 2.92642 17.2222 2.30825C18.029 1.69011 18.9549 1.38104 20 1.38104C21.0451 1.38104 21.971 1.69011 22.7778 2.30825C23.5845 2.92642 24.1154 3.72846 24.3705 4.71438H32.1226C32.9924 4.71438 33.7371 5.02408 34.3565 5.6435C34.9759 6.26294 35.2856 7.00758 35.2856 7.87742V32.1226C35.2856 32.9906 34.9759 33.7337 34.3565 34.3518C33.7371 34.9699 32.9924 35.279 32.1226 35.279H7.87742ZM7.87742 32.1226H32.1226V7.87742H7.87742V32.1226ZM20 6.95529C20.4027 6.95529 20.7459 6.8134 21.0297 6.52962C21.3135 6.24585 21.4553 5.90264 21.4553 5.5C21.4553 5.09733 21.3135 4.75411 21.0297 4.47033C20.7459 4.18656 20.4027 4.04467 20 4.04467C19.5973 4.04467 19.2541 4.18656 18.9703 4.47033C18.6866 4.75411 18.5447 5.09733 18.5447 5.5C18.5447 5.90264 18.6866 6.24585 18.9703 6.52962C19.2541 6.8134 19.5973 6.95529 20 6.95529Z" fill="#F5B502"/>
</g>
</svg>
