<svg width="113" height="27" viewBox="0 0 113 27" fill="none" xmlns="http://www.w3.org/2000/svg">
<path fill-rule="evenodd" clip-rule="evenodd" d="M55.8516 0H50.4416V26.1845H55.8516V17.3121H55.9237L61.8387 26.1845H68.6553L61.5141 16.5547L68.4749 8.65604H61.8387L55.8516 15.5809V0ZM8.87242 12.9841H13.6332V8.65604H8.87242V2.86102e-05H3.46241V8.65604H0V12.9841H3.46241V21.3155C3.46241 22.2772 3.6187 23.0948 3.93127 23.768C4.2679 24.4412 4.72474 24.9943 5.30181 25.4271C5.87888 25.8358 6.55212 26.1364 7.32155 26.3287C8.09097 26.5211 8.93253 26.6173 9.84622 26.6173C10.4714 26.6173 11.1086 26.5812 11.7578 26.5091C12.407 26.4369 13.0321 26.2927 13.6332 26.0763V21.5679C13.3928 21.7843 13.0321 21.9286 12.5512 22.0007C12.0944 22.0488 11.7217 22.0729 11.4332 22.0729C10.8561 22.0729 10.3872 22.0007 10.0266 21.8565C9.68993 21.6882 9.43746 21.4597 9.26915 21.1712C9.10084 20.8827 8.99264 20.546 8.94455 20.1613C8.89646 19.7526 8.87242 19.3078 8.87242 18.8269V12.9841ZM21.7925 8.65604H16.3825V26.1845H21.7925V18.8629C21.7925 17.9973 21.8406 17.2039 21.9367 16.4825C22.0329 15.7612 22.2373 15.1481 22.5499 14.6431C22.8865 14.1141 23.3554 13.7054 23.9565 13.4169C24.5576 13.1283 25.3751 12.9841 26.409 12.9841C26.8178 12.9841 27.2025 13.0201 27.5632 13.0923C27.9479 13.1403 28.3326 13.2245 28.7173 13.3447V8.40358C28.4528 8.33144 28.1643 8.28335 27.8517 8.25931C27.5391 8.23526 27.2265 8.22324 26.9139 8.22324C25.7117 8.22324 24.7139 8.49975 23.9204 9.05278C23.1269 9.58176 22.4417 10.3872 21.8646 11.4692H21.7925V8.65604ZM42.0701 23.9844H41.998C41.3969 24.9221 40.5914 25.5954 39.5815 26.0041C38.5957 26.4129 37.5498 26.6173 36.4437 26.6173C35.6262 26.6173 34.8328 26.497 34.0633 26.2566C33.318 26.0402 32.6567 25.7036 32.0797 25.2467C31.5026 24.7899 31.0457 24.2248 30.7091 23.5516C30.3725 22.8784 30.2042 22.0969 30.2042 21.2073C30.2042 20.1974 30.3845 19.3438 30.7452 18.6465C31.1299 17.9492 31.6348 17.3722 32.26 16.9153C32.9092 16.4585 33.6426 16.1098 34.4601 15.8694C35.2776 15.6049 36.1191 15.4125 36.9847 15.2923C37.8744 15.1721 38.752 15.1 39.6176 15.0759C40.5073 15.0519 41.3248 15.0399 42.0701 15.0399C42.0701 14.0781 41.7215 13.3207 41.0242 12.7677C40.351 12.1906 39.5455 11.902 38.6077 11.902C37.7181 11.902 36.9006 12.0944 36.1552 12.4791C35.4339 12.8398 34.7847 13.3447 34.2076 13.9939L31.3223 11.0364C32.3321 10.0987 33.5103 9.40142 34.8568 8.94458C36.2033 8.46369 37.5979 8.22324 39.0405 8.22324C40.6275 8.22324 41.9259 8.42762 42.9357 8.83638C43.9697 9.22109 44.7872 9.79816 45.3883 10.5676C46.0134 11.337 46.4462 12.2868 46.6867 13.4169C46.9271 14.5229 47.0474 15.8093 47.0474 17.276V26.1845H42.0701V23.9844ZM40.7357 18.5023C40.3269 18.5023 39.81 18.5263 39.1848 18.5744C38.5837 18.5984 37.9946 18.6946 37.4175 18.8629C36.8645 19.0312 36.3836 19.2837 35.9749 19.6203C35.5902 19.957 35.3978 20.4258 35.3978 21.0269C35.3978 21.6761 35.6743 22.157 36.2273 22.4696C36.7804 22.7822 37.3574 22.9385 37.9585 22.9385C38.4875 22.9385 38.9925 22.8663 39.4733 22.7221C39.9783 22.5778 40.4231 22.3734 40.8078 22.1089C41.1925 21.8444 41.4931 21.5078 41.7095 21.0991C41.9499 20.6903 42.0701 20.2094 42.0701 19.6564V18.5023H40.7357ZM82.4206 12.9841H77.6598V18.8269C77.6598 19.3078 77.6839 19.7526 77.732 20.1613C77.7801 20.546 77.8883 20.8827 78.0566 21.1712C78.2249 21.4597 78.4773 21.6882 78.814 21.8565C79.1746 22.0007 79.6435 22.0729 80.2206 22.0729C80.5091 22.0729 80.8818 22.0488 81.3386 22.0007C81.8195 21.9286 82.1802 21.7843 82.4206 21.5679V26.0763C81.8195 26.2927 81.1944 26.4369 80.5452 26.5091C79.896 26.5812 79.2588 26.6173 78.6336 26.6173C77.7199 26.6173 76.8784 26.5211 76.109 26.3287C75.3395 26.1364 74.6663 25.8358 74.0892 25.4271C73.5122 24.9943 73.0553 24.4412 72.7187 23.768C72.4061 23.0948 72.2498 22.2772 72.2498 21.3155V12.9841H68.7874V8.65604H72.2498V2.86102e-05H77.6598V8.65604H82.4206V12.9841ZM90.652 26.1845V8.65604H85.242V26.1845H90.652Z" fill="black"/>
<path d="M112.557 8.43748L105.513 25.9073H99.8775L91.3389 5.53824L84.7837 5.53823L81.2837 0.18457L95.2837 0.184588L102.695 20.2719L106.64 8.43748H112.557Z" fill="#F5B502"/>
</svg>
